<svg width="24" height="25" viewBox="0 0 24 25" fill="none" xmlns="http://www.w3.org/2000/svg">
<path d="M12.2393 3.3332C12.8736 3.3332 13.3878 2.81899 13.3878 2.18468C13.3878 1.55037 12.8736 1.03616 12.2393 1.03616C11.605 1.03616 11.0907 1.55037 11.0907 2.18468C11.0907 2.81899 11.605 3.3332 12.2393 3.3332Z" stroke="black" stroke-width="1.9142"/>
<path d="M5.34815 20.561V10.2243C5.34815 8.39668 6.07418 6.6439 7.36651 5.35156C8.65884 4.05923 10.4116 3.33321 12.2393 3.33321C14.0669 3.33321 15.8197 4.05923 17.112 5.35156C18.4043 6.6439 19.1304 8.39668 19.1304 10.2243V20.561M5.34815 20.561H19.1304ZM5.34815 20.561H3.05112ZM19.1304 20.561H21.4274ZM11.0907 24.0065H13.3878Z" fill="black"/>
<path d="M5.34815 20.561V10.2243C5.34815 8.39668 6.07418 6.6439 7.36651 5.35156C8.65884 4.05923 10.4116 3.33321 12.2393 3.33321C14.0669 3.33321 15.8197 4.05923 17.112 5.35156C18.4043 6.6439 19.1304 8.39668 19.1304 10.2243V20.561M5.34815 20.561H19.1304M5.34815 20.561H3.05112M19.1304 20.561H21.4274M11.0907 24.0065H13.3878" stroke="black" stroke-width="1.9142" stroke-linecap="round" stroke-linejoin="round"/>
<path d="M4.77128 2.57625C4.93487 2.381 5.01539 2.12939 4.99555 1.87544C4.97571 1.62149 4.85709 1.38545 4.66516 1.21798C4.47323 1.0505 4.22329 0.96496 3.96899 0.979707C3.7147 0.994453 3.47632 1.10832 3.30503 1.29685L1.62859 3.21724C0.677969 4.30663 0.140591 5.69554 0.110439 7.14107L0.0364782 10.6691C0.0311441 10.9272 0.128559 11.1769 0.307292 11.3632C0.486025 11.5494 0.731436 11.6571 0.989537 11.6624C1.24764 11.6678 1.49729 11.5703 1.68356 11.3916C1.86984 11.2129 1.97749 10.9675 1.98282 10.7094L2.05548 7.18259C2.0763 6.19349 2.4442 5.2432 3.09483 4.49793L4.77128 2.57625Z" fill="black"/>
<path d="M19.3221 1.2034C19.1277 1.37308 19.0087 1.61303 18.9912 1.87046C18.9737 2.1279 19.0591 2.38176 19.2287 2.57622L20.9052 4.49661C21.5556 5.2424 21.9231 6.19318 21.9432 7.18256L22.0172 10.708C22.0198 10.8358 22.0476 10.9619 22.0989 11.0789C22.1503 11.196 22.2242 11.3018 22.3164 11.3903C22.4087 11.4788 22.5174 11.5482 22.6365 11.5947C22.7556 11.6412 22.8827 11.6637 23.0105 11.6611C23.1383 11.6585 23.2643 11.6307 23.3813 11.5793C23.4984 11.528 23.6042 11.4541 23.6927 11.3618C23.7812 11.2696 23.8507 11.1608 23.8971 11.0418C23.9436 10.9227 23.9662 10.7956 23.9635 10.6678L23.8896 7.14104C23.8594 5.69552 23.322 4.3066 22.3714 3.21721L20.695 1.29682C20.5253 1.10243 20.2853 0.98339 20.0279 0.965871C19.7705 0.948351 19.5166 1.03379 19.3221 1.2034Z" fill="black"/>
</svg>
