<svg width="19" height="18" viewBox="0 0 19 18" fill="none" xmlns="http://www.w3.org/2000/svg">
<path d="M7.13158 3.78948C7.13158 1.96105 5.64421 0.473686 3.81579 0.473686C1.98737 0.473686 0.5 1.96105 0.5 3.78948C0.5 5.6179 1.98737 7.10526 3.81579 7.10526C4.34946 7.10156 4.87411 6.96723 5.34389 6.714L7.57684 9.10895L5.38084 11.3049C4.90163 11.0396 4.36355 10.8986 3.81579 10.8947C1.98737 10.8947 0.5 12.3821 0.5 14.2105C0.5 16.0389 1.98737 17.5263 3.81579 17.5263C5.64421 17.5263 7.13158 16.0389 7.13158 14.2105C7.13158 13.6412 6.97432 13.1135 6.72042 12.6455L8.87 10.4968L13.7632 15.7462C14.296 16.2792 15.0188 16.5788 15.7725 16.5789H18.5L6.51579 5.70126C6.90042 5.15937 7.13158 4.50284 7.13158 3.78948ZM3.81579 5.21053C3.03232 5.21053 2.39474 4.57295 2.39474 3.78948C2.39474 3.006 3.03232 2.36842 3.81579 2.36842C4.59926 2.36842 5.23684 3.006 5.23684 3.78948C5.23684 4.57295 4.59926 5.21053 3.81579 5.21053ZM3.81579 15.6316C3.03232 15.6316 2.39474 14.994 2.39474 14.2105C2.39474 13.4271 3.03232 12.7895 3.81579 12.7895C4.59926 12.7895 5.23684 13.4271 5.23684 14.2105C5.23684 14.994 4.59926 15.6316 3.81579 15.6316Z" fill="black"/>
<path d="M13.7632 2.25379L10.2513 6.43547L11.5908 7.77505L18.5 1.42105H15.7725C15.0188 1.42121 14.296 1.72075 13.7632 2.25379Z" fill="black"/>
</svg>
