<svg width="19" height="18" viewBox="0 0 19 18" fill="none" xmlns="http://www.w3.org/2000/svg">
<path d="M8.10415 16.2546L12.4332 10.9399C12.6231 10.7067 12.9079 10.5714 13.2085 10.5714H16C16.5523 10.5714 17 10.1237 17 9.57143V3C17 2.44772 16.5523 2 16 2H3.43061C2.94909 2 2.53594 2.34316 2.44759 2.8165L1.22092 9.38793C1.10608 10.0031 1.57813 10.5714 2.20394 10.5714H5.78027C6.36516 10.5714 6.8252 11.0712 6.77684 11.6541L6.45047 15.588C6.39505 16.2561 7.04115 16.763 7.67686 16.5502C7.84439 16.4941 7.99257 16.3916 8.10415 16.2546Z" fill="black" stroke="black" stroke-width="1.3" stroke-miterlimit="16"/>
<path d="M6.5692 10.9923L7.30673 11.1149C7.32454 11.0078 7.3188 10.8982 7.28994 10.7935C7.26107 10.6889 7.20975 10.5918 7.13956 10.509C7.06938 10.4262 6.98199 10.3597 6.8835 10.314C6.785 10.2684 6.67775 10.2448 6.5692 10.2448V10.9923ZM17.5326 10.9923V11.7398C17.7308 11.7398 17.9209 11.6611 18.0611 11.5209C18.2013 11.3807 18.2801 11.1906 18.2801 10.9923H17.5326ZM15.5392 0.278135H4.21706V1.77314H15.5392V0.278135ZM3.02105 11.7398H6.5692V10.2448H3.02105V11.7398ZM5.83166 10.8697L5.02835 15.6886L6.50342 15.9348L7.30673 11.1149L5.83166 10.8697ZM6.7486 17.7199H6.96189V16.2249H6.7496L6.7486 17.7199ZM10.0725 16.0554L12.5791 12.295L11.3353 11.4658L8.82865 15.2262L10.0725 16.0554ZM13.6157 11.7398H17.5326V10.2448H13.6157V11.7398ZM18.2801 10.9923V3.01898H16.7851V10.9923H18.2801ZM1.52904 2.48077L0.333035 8.46079L1.79814 8.75481L2.99414 2.77479L1.52904 2.48077ZM12.5791 12.295C12.6928 12.1243 12.847 11.9853 13.0278 11.8884C13.2086 11.7916 13.4105 11.7409 13.6157 11.7408V10.2458C12.6987 10.2458 11.8436 10.7033 11.3353 11.4658L12.5791 12.295ZM5.02835 15.6886C4.98682 15.9384 5.00018 16.1953 5.0675 16.4394C5.13482 16.6835 5.25449 16.91 5.41819 17.1032C5.58189 17.2964 5.7857 17.4517 6.01545 17.5581C6.2452 17.6646 6.49537 17.7198 6.7486 17.7199L6.7496 16.2249C6.71347 16.2248 6.6768 16.2168 6.64405 16.2016C6.61129 16.1863 6.58225 16.1641 6.55893 16.1365C6.5356 16.109 6.51856 16.0766 6.50897 16.0418C6.49939 16.007 6.49749 15.9705 6.50342 15.9348L5.02835 15.6886ZM3.02105 10.2458C2.23368 10.2458 1.64565 9.52623 1.79914 8.75581L0.333035 8.46179C0.253721 8.85937 0.263594 9.27059 0.36194 9.66389C0.460289 10.0572 0.644663 10.4238 0.901775 10.7372C1.15889 11.0507 1.48233 11.3032 1.8488 11.4766C2.21527 11.6499 2.61564 11.7399 3.02105 11.7398V10.2458ZM4.21706 0.278135C3.58347 0.278011 2.9694 0.498398 2.47933 0.899977C1.98926 1.30156 1.65345 1.86052 1.52904 2.48177L2.99414 2.77579C3.05064 2.49314 3.2034 2.23882 3.42639 2.05617C3.64938 1.87352 3.92881 1.77285 4.21706 1.77314V0.278135ZM6.96189 17.7199C7.57717 17.7198 8.18292 17.5689 8.72538 17.2785C9.26784 16.9882 9.73022 16.5684 10.0715 16.0564L8.82865 15.2262C8.62379 15.5335 8.3462 15.7865 8.02054 15.9607C7.69487 16.1349 7.33122 16.225 6.96189 16.2249V17.7199ZM15.5392 1.77314C16.2269 1.77314 16.7851 2.33128 16.7851 3.01898H18.2801C18.2801 2.29206 17.9913 1.59492 17.4773 1.08091C16.9633 0.566902 16.2661 0.278135 15.5392 0.278135V1.77314Z" fill="black"/>
<path d="M13.5459 10.9923V1.02564" stroke="black" stroke-width="1.495"/>
</svg>
