<svg width="19" height="18" viewBox="0 0 19 18" fill="none" xmlns="http://www.w3.org/2000/svg">
<path d="M6.5692 10.9923L7.30674 11.1149C7.32454 11.0078 7.31881 10.8982 7.28994 10.7935C7.26107 10.6889 7.20976 10.5918 7.13957 10.509C7.06938 10.4262 6.982 10.3597 6.8835 10.314C6.785 10.2684 6.67775 10.2448 6.5692 10.2448V10.9923ZM17.5326 10.9923V11.7398C17.7308 11.7398 17.921 11.6611 18.0611 11.5209C18.2013 11.3807 18.2801 11.1906 18.2801 10.9923H17.5326ZM15.5392 0.278135H4.21706V1.77314H15.5392V0.278135ZM3.02106 11.7398H6.5692V10.2448H3.02106V11.7398ZM5.83167 10.8697L5.02835 15.6886L6.50342 15.9348L7.30674 11.1149L5.83167 10.8697ZM6.7486 17.7199H6.96189V16.2249H6.7496L6.7486 17.7199ZM10.0725 16.0554L12.5791 12.295L11.3353 11.4658L8.82865 15.2262L10.0725 16.0554ZM13.6157 11.7398H17.5326V10.2448H13.6157V11.7398ZM18.2801 10.9923V3.01898H16.7851V10.9923H18.2801ZM1.52904 2.48078L0.333038 8.46079L1.79814 8.75481L2.99415 2.77479L1.52904 2.48078ZM12.5791 12.295C12.6928 12.1243 12.847 11.9853 13.0278 11.8884C13.2086 11.7916 13.4105 11.7409 13.6157 11.7408V10.2458C12.6987 10.2458 11.8436 10.7033 11.3353 11.4658L12.5791 12.295ZM5.02835 15.6886C4.98682 15.9384 5.00018 16.1953 5.06751 16.4394C5.13483 16.6835 5.2545 16.91 5.4182 17.1032C5.5819 17.2964 5.7857 17.4517 6.01545 17.5581C6.2452 17.6646 6.49538 17.7198 6.7486 17.7199L6.7496 16.2249C6.71347 16.2248 6.6768 16.2168 6.64405 16.2016C6.6113 16.1863 6.58225 16.1641 6.55893 16.1365C6.53561 16.109 6.51856 16.0766 6.50898 16.0418C6.49939 16.007 6.4975 15.9705 6.50342 15.9348L5.02835 15.6886ZM3.02106 10.2458C2.23369 10.2458 1.64565 9.52623 1.79914 8.75581L0.333038 8.46179C0.253725 8.85937 0.263597 9.27059 0.361945 9.66389C0.460293 10.0572 0.644667 10.4238 0.901779 10.7372C1.15889 11.0507 1.48234 11.3032 1.84881 11.4766C2.21528 11.6499 2.61565 11.7399 3.02106 11.7398V10.2458ZM4.21706 0.278135C3.58347 0.278011 2.96941 0.498397 2.47933 0.899976C1.98926 1.30156 1.65346 1.86052 1.52904 2.48177L2.99415 2.77579C3.05064 2.49314 3.2034 2.23882 3.4264 2.05617C3.64939 1.87352 3.92881 1.77285 4.21706 1.77314V0.278135ZM6.96189 17.7199C7.57717 17.7198 8.18292 17.5689 8.72538 17.2785C9.26784 16.9882 9.73023 16.5684 10.0715 16.0564L8.82865 15.2262C8.6238 15.5335 8.3462 15.7865 8.02054 15.9607C7.69488 16.1349 7.33123 16.225 6.96189 16.2249V17.7199ZM15.5392 1.77314C16.2269 1.77314 16.7851 2.33128 16.7851 3.01898H18.2801C18.2801 2.29206 17.9913 1.59492 17.4773 1.08091C16.9633 0.566902 16.2661 0.278135 15.5392 0.278135V1.77314Z" fill="black"/>
<path d="M13.5459 10.9923V1.02564" stroke="black" stroke-width="1.495"/>
</svg>
