<svg width="19" height="16" viewBox="0 0 19 16" fill="none" xmlns="http://www.w3.org/2000/svg">
<path d="M10.7857 0.285721C8.73976 0.285721 6.7776 1.09847 5.33089 2.54518C3.88418 3.99189 3.07143 5.95405 3.07143 8.00001H0.5L3.83429 11.3343L3.89429 11.4543L7.35714 8.00001H4.78571C4.78571 4.68286 7.46857 2.00001 10.7857 2.00001C14.1029 2.00001 16.7857 4.68286 16.7857 8.00001C16.7857 11.3171 14.1029 14 10.7857 14C9.13143 14 7.63143 13.3229 6.55143 12.2343L5.33429 13.4514C6.04853 14.1699 6.898 14.7398 7.83366 15.1281C8.76932 15.5165 9.77265 15.7157 10.7857 15.7143C12.8317 15.7143 14.7938 14.9015 16.2405 13.4548C17.6872 12.0081 18.5 10.046 18.5 8.00001C18.5 5.95405 17.6872 3.99189 16.2405 2.54518C14.7938 1.09847 12.8317 0.285721 10.7857 0.285721ZM9.92857 4.57144V8.85715L13.5971 11.0343L14.2143 9.99715L11.2143 8.21429V4.57144H9.92857Z" fill="black"/>
</svg>
