<svg width="19" height="18" viewBox="0 0 19 18" fill="none" xmlns="http://www.w3.org/2000/svg">
<path d="M10.456 1.74441L6.12693 7.05911C5.93703 7.29225 5.65229 7.42756 5.35159 7.42756H2.56014C2.00786 7.42756 1.56014 7.87528 1.56014 8.42756V14.999C1.56014 15.5513 2.00786 15.999 2.56014 15.999H15.1295C15.6111 15.999 16.0242 15.6558 16.1126 15.1825L17.3392 8.61106C17.4541 7.99588 16.982 7.42756 16.3562 7.42756H12.7799C12.195 7.42756 11.7349 6.92778 11.7833 6.34488L12.1097 2.41098C12.1651 1.74287 11.519 1.23598 10.8833 1.44883C10.7157 1.50493 10.5676 1.60743 10.456 1.74441Z" fill="black" stroke="black" stroke-width="1.3" stroke-miterlimit="16"/>
<path d="M11.9909 7.00666L11.2534 6.88407C11.2356 6.99114 11.2413 7.10082 11.2702 7.20546C11.2991 7.3101 11.3504 7.40719 11.4206 7.49C11.4908 7.5728 11.5781 7.63932 11.6766 7.68494C11.7751 7.73056 11.8824 7.75418 11.9909 7.75416V7.00666ZM1.02757 7.00666V6.25915C0.829324 6.25915 0.639194 6.33791 0.49901 6.47809C0.358826 6.61828 0.280071 6.80841 0.280071 7.00666H1.02757ZM3.02091 17.7209H14.3431V16.2259H3.02091V17.7209ZM15.5391 6.25915H11.9909V7.75416H15.5391V6.25915ZM12.7285 7.12925L13.5318 2.31035L12.0567 2.06417L11.2534 6.88407L12.7285 7.12925ZM11.8115 0.279134H11.5983V1.77414H11.8105L11.8115 0.279134ZM8.48765 1.94357L5.98102 5.70401L7.22487 6.53324L9.73149 2.7728L8.48765 1.94357ZM4.94449 6.25915H1.02757V7.75416H4.94449V6.25915ZM0.280071 7.00666V14.98H1.77508V7.00666H0.280071ZM17.0311 15.5182L18.2271 9.5382L16.762 9.24418L15.566 15.2242L17.0311 15.5182ZM5.98102 5.70401C5.8673 5.87472 5.71319 6.01372 5.53237 6.11056C5.35155 6.20741 5.14961 6.25811 4.94449 6.25816V7.75316C5.86142 7.75316 6.71657 7.29569 7.22487 6.53324L5.98102 5.70401ZM13.5318 2.31035C13.5733 2.06055 13.56 1.80371 13.4926 1.5596C13.4253 1.31549 13.3056 1.08896 13.1419 0.895764C12.9782 0.702567 12.7744 0.547332 12.5447 0.440846C12.3149 0.33436 12.0648 0.279178 11.8115 0.279134L11.8105 1.77414C11.8467 1.77423 11.8833 1.78217 11.9161 1.79742C11.9488 1.81267 11.9779 1.83486 12.0012 1.86245C12.0245 1.89004 12.0416 1.92237 12.0512 1.9572C12.0608 1.99203 12.0626 2.02853 12.0567 2.06417L13.5318 2.31035ZM15.5391 7.75316C16.3265 7.75316 16.9145 8.47276 16.761 9.24318L18.2271 9.5372C18.3064 9.13962 18.2965 8.7284 18.1982 8.3351C18.0999 7.9418 17.9155 7.57521 17.6584 7.26176C17.4013 6.94831 17.0778 6.6958 16.7113 6.52242C16.3449 6.34905 15.9445 6.25913 15.5391 6.25915V7.75316ZM14.3431 17.7209C14.9767 17.721 15.5907 17.5006 16.0808 17.099C16.5709 16.6974 16.9067 16.1385 17.0311 15.5172L15.566 15.2232C15.5095 15.5059 15.3567 15.7602 15.1337 15.9428C14.9108 16.1255 14.6313 16.2261 14.3431 16.2259V17.7209ZM11.5983 0.279134C10.983 0.279179 10.3772 0.430125 9.83477 0.720479C9.29231 1.01083 8.82992 1.43062 8.48865 1.94258L9.73149 2.7728C9.93635 2.46549 10.2139 2.21253 10.5396 2.03831C10.8653 1.86409 11.2289 1.774 11.5983 1.77414V0.279134ZM3.02091 16.2259C2.33321 16.2259 1.77508 15.6677 1.77508 14.98H0.280071C0.280071 15.7069 0.568838 16.4041 1.08285 16.9181C1.59685 17.4321 2.294 17.7209 3.02091 17.7209V16.2259Z" fill="black"/>
<path d="M5.01426 7.00665V16.9734" stroke="black" stroke-width="1.495"/>
</svg>
