<svg width="14" height="19" viewBox="0 0 14 19" fill="none" xmlns="http://www.w3.org/2000/svg">
<path d="M7 11.8684C6.21053 11.8684 5.53948 11.5921 4.98684 11.0395C4.43421 10.4868 4.1579 9.81579 4.1579 9.02632V3.34211C4.1579 2.55263 4.43421 1.88158 4.98684 1.32895C5.53948 0.776316 6.21053 0.5 7 0.5C7.78948 0.5 8.46053 0.776316 9.01316 1.32895C9.56579 1.88158 9.84211 2.55263 9.84211 3.34211V9.02632C9.84211 9.81579 9.56579 10.4868 9.01316 11.0395C8.46053 11.5921 7.78948 11.8684 7 11.8684ZM6.05263 18.5V15.5868C4.41053 15.3658 3.05263 14.6316 1.97895 13.3842C0.905265 12.1368 0.368423 10.6842 0.368423 9.02632H2.26316C2.26316 10.3368 2.72516 11.4541 3.64916 12.3781C4.57316 13.3021 5.69011 13.7638 7 13.7632C8.3099 13.7625 9.42716 13.3005 10.3518 12.3772C11.2764 11.4538 11.7381 10.3368 11.7368 9.02632H13.6316C13.6316 10.6842 13.0947 12.1368 12.0211 13.3842C10.9474 14.6316 9.58948 15.3658 7.94737 15.5868V18.5H6.05263Z" fill="black"/>
</svg>
