<svg width="22" height="25" viewBox="0 0 22 25" fill="none" xmlns="http://www.w3.org/2000/svg">
<path d="M11.24 3.304C11.8762 3.304 12.392 2.78823 12.392 2.152C12.392 1.51577 11.8762 1 11.24 1C10.6038 1 10.088 1.51577 10.088 2.152C10.088 2.78823 10.6038 3.304 11.24 3.304Z" stroke="black" stroke-width="1.92"/>
<path d="M12.3921 23.0801C12.9221 23.0802 13.3519 23.51 13.3521 24.04C13.3519 24.57 12.9221 24.9999 12.3921 25H10.0884C9.55833 25 9.12763 24.5701 9.12746 24.04C9.12761 23.51 9.55832 23.0801 10.0884 23.0801H12.3921ZM5.59035 8.34668C5.3926 8.94436 5.28764 9.57456 5.28761 10.2158V19.624H17.1919V15.4854L19.1118 16.666V19.624H20.4556C20.9857 19.624 21.4154 20.0539 21.4155 20.584C21.4154 21.1141 20.9857 21.5439 20.4556 21.5439H2.02394C1.49386 21.5439 1.06413 21.114 1.06398 20.584C1.06413 20.0539 1.49386 19.624 2.02394 19.624H3.36769V10.2158C3.36773 9.21463 3.56 8.23364 3.9214 7.32031L5.59035 8.34668ZM11.2398 2.34375C13.3275 2.34375 15.3299 3.17325 16.8062 4.64941C18.2824 6.12563 19.1118 8.12814 19.1118 10.2158V14.7129L17.1919 13.5312V10.2158C17.1918 8.63735 16.5649 7.12299 15.4487 6.00684C14.3325 4.89074 12.8182 4.26367 11.2398 4.26367C9.66133 4.26373 8.14693 4.89075 7.03078 6.00684C6.77065 6.26698 6.53778 6.54947 6.33253 6.84863L4.69484 5.84082C4.97903 5.41567 5.30646 5.01633 5.67336 4.64941C7.14958 3.17326 9.15211 2.34381 11.2398 2.34375Z" fill="black"/>
<path d="M1 3.56L21.48 16.36" stroke="black" stroke-width="1.664" stroke-miterlimit="16"/>
</svg>
