<svg width="20" height="20" viewBox="0 0 20 20" fill="none" xmlns="http://www.w3.org/2000/svg">
<path d="M3.63606 3.63606C2.80032 4.47179 2.13738 5.46395 1.68509 6.55588C1.23279 7.64782 1 8.81815 1 10.0001C1 11.182 1.23279 12.3523 1.68509 13.4442C2.13738 14.5362 2.80032 15.5283 3.63605 16.3641C4.47179 17.1998 5.46395 17.8627 6.55588 18.315C7.64782 18.7673 8.81815 19.0001 10.0001 19.0001C11.182 19.0001 12.3523 18.7673 13.4442 18.315C14.5362 17.8627 15.5283 17.1998 16.3641 16.3641M3.63606 3.63606C4.47179 2.80032 5.46395 2.13738 6.55588 1.68509C7.64782 1.23279 8.81815 1 10.0001 1C11.182 1 12.3523 1.23279 13.4442 1.68509C14.5362 2.13738 15.5283 2.80032 16.3641 3.63605C17.1998 4.47179 17.8627 5.46395 18.315 6.55588C18.7673 7.64782 19.0001 8.81815 19.0001 10.0001C19.0001 11.182 18.7673 12.3523 18.315 13.4442C17.8627 14.5362 17.1998 15.5283 16.3641 16.3641M3.63606 3.63606L10.0001 10.0001L16.3641 16.3641" stroke="black" stroke-width="2" stroke-linecap="round" stroke-linejoin="round"/>
</svg>
