<svg width="21" height="25" viewBox="0 0 21 25" fill="none" xmlns="http://www.w3.org/2000/svg">
<path d="M10.24 3.304C10.8762 3.304 11.392 2.78823 11.392 2.152C11.392 1.51577 10.8762 1 10.24 1C9.60375 1 9.08798 1.51577 9.08798 2.152C9.08798 2.78823 9.60375 3.304 10.24 3.304Z" stroke="black" stroke-width="1.92"/>
<path d="M11.3921 23.0801C11.9221 23.0802 12.3519 23.51 12.3521 24.04C12.3519 24.57 11.9221 24.9999 11.3921 25H9.08839C8.55833 25 8.12763 24.5701 8.12746 24.04C8.12761 23.51 8.55832 23.0801 9.08839 23.0801H11.3921ZM10.2398 2.34375C12.3275 2.34375 14.3299 3.17325 15.8062 4.64941C17.2824 6.12563 18.1118 8.12814 18.1118 10.2158V19.624H19.4556C19.9857 19.624 20.4154 20.0539 20.4155 20.584C20.4154 21.1141 19.9857 21.5439 19.4556 21.5439H1.02394C0.493858 21.5439 0.0641273 21.114 0.0639801 20.584C0.064134 20.0539 0.493863 19.624 1.02394 19.624H2.36769V10.2158C2.36777 8.12821 3.19723 6.12562 4.67336 4.64941C6.14958 3.17326 8.15211 2.34381 10.2398 2.34375ZM10.2398 4.26367C8.66133 4.26373 7.14693 4.89075 6.03078 6.00684C4.91472 7.12297 4.28769 8.63742 4.28761 10.2158V19.624H16.1919V10.2158C16.1918 8.63735 15.5649 7.12299 14.4487 6.00684C13.3325 4.89074 11.8182 4.26367 10.2398 4.26367Z" fill="black"/>
</svg>
