<svg width="19" height="22" viewBox="0 0 19 22" fill="none" xmlns="http://www.w3.org/2000/svg">
<path d="M10.9237 1.469C11.8244 0.956066 12.8915 0.820408 13.8919 1.09165C14.8924 1.3629 15.7448 2.01901 16.2631 2.91668C16.7814 3.81435 16.9234 4.88065 16.6581 5.88267C16.3928 6.8847 15.7418 7.74103 14.8472 8.26465L14.0467 8.72548C14.9216 8.69521 15.7816 8.95849 16.4896 9.47343C17.1976 9.98837 17.7129 10.7254 17.9537 11.5671C18.1944 12.4088 18.1466 13.3068 17.8179 14.1182C17.4892 14.9297 16.8986 15.6078 16.1399 16.0447L8.54594 20.4291C7.64507 20.9494 6.57441 21.0905 5.56949 20.8214C4.56457 20.5523 3.70771 19.895 3.18741 18.9941C2.66712 18.0933 2.526 17.0226 2.79511 16.0177C3.06422 15.0128 3.7215 14.1559 4.62238 13.6356L5.4218 13.1726C4.54779 13.2012 3.68927 12.937 2.98258 12.4219C2.27588 11.9068 1.76151 11.1704 1.52114 10.3296C1.28077 9.48883 1.32818 8.59183 1.65584 7.78105C1.98349 6.97027 2.57262 6.29219 3.32967 5.85448L10.9237 1.469Z" stroke="black" stroke-width="1.66667" stroke-linejoin="round"/>
<path d="M8.15006 9.07089C8.15006 8.78128 8.4699 8.60534 8.71452 8.75839L11.735 10.6461H11.736C11.7888 10.679 11.8317 10.7255 11.862 10.7799C11.8923 10.8344 11.9089 10.8962 11.9089 10.9586C11.9088 11.0209 11.8922 11.0819 11.862 11.1363C11.8318 11.1908 11.7888 11.2371 11.736 11.2701L11.734 11.2711L8.71452 13.1588C8.46908 13.312 8.15031 13.136 8.15006 12.8463V9.07089Z" stroke="black" stroke-width="1.66667"/>
</svg>
