<svg width="17" height="20" viewBox="0 0 17 20" fill="none" xmlns="http://www.w3.org/2000/svg">
<path d="M9.83153 1.47522C10.6642 1.00105 11.6507 0.87565 12.5755 1.12639C13.5003 1.37714 14.2883 1.98365 14.7674 2.81348C15.2465 3.6433 15.3778 4.62899 15.1325 5.55528C14.8873 6.48157 14.2855 7.27318 13.4585 7.75722L12.7185 8.18322C13.5273 8.15523 14.3222 8.39862 14.9767 8.87464C15.6312 9.35065 16.1076 10.0319 16.3302 10.81C16.5527 11.5881 16.5085 12.4183 16.2047 13.1684C15.9009 13.9185 15.3548 14.5453 14.6535 14.9492L7.63353 19.0022C6.80075 19.4832 5.81102 19.6136 4.88206 19.3649C3.9531 19.1161 3.161 18.5085 2.68003 17.6757C2.19906 16.8429 2.06861 15.8532 2.31738 14.9242C2.56615 13.9953 3.17375 13.2032 4.00653 12.7222L4.74553 12.2942C3.93758 12.3206 3.14396 12.0764 2.49068 11.6002C1.8374 11.1241 1.36191 10.4434 1.13971 9.66611C0.917507 8.88887 0.961331 8.05967 1.26422 7.31017C1.56711 6.56068 2.11171 5.93385 2.81153 5.52922L9.83153 1.47522Z" stroke="black" stroke-linejoin="round"/>
<path d="M10.992 9.30642L8.2 7.56142C7.46 7.09842 6.5 7.63142 6.5 8.50342V11.9934C6.5 12.8664 7.46 13.3984 8.2 12.9364L10.992 11.1904C11.152 11.0907 11.2839 10.9519 11.3754 10.7871C11.4669 10.6223 11.5149 10.4369 11.5149 10.2484C11.5149 10.0599 11.4669 9.87454 11.3754 9.70973C11.2839 9.54493 11.152 9.40613 10.992 9.30642Z" fill="black"/>
</svg>
