<svg width="22" height="20" viewBox="0 0 22 20" fill="none" xmlns="http://www.w3.org/2000/svg">
<path fill-rule="evenodd" clip-rule="evenodd" d="M15.6853 7.4544C15.6853 8.35457 15.3277 9.21788 14.6912 9.8544C14.0546 10.4909 13.1913 10.8485 12.2912 10.8485C11.391 10.8485 10.5277 10.4909 9.89115 9.8544C9.25463 9.21788 8.89703 8.35457 8.89703 7.4544C8.89703 6.55422 9.25463 5.69091 9.89115 5.05439C10.5277 4.41787 11.391 4.06027 12.2912 4.06027C13.1913 4.06027 14.0546 4.41787 14.6912 5.05439C15.3277 5.69091 15.6853 6.55422 15.6853 7.4544ZM13.9882 7.4544C13.9882 7.90449 13.8094 8.33614 13.4912 8.6544C13.1729 8.97266 12.7412 9.15146 12.2912 9.15146C11.8411 9.15146 11.4094 8.97266 11.0912 8.6544C10.7729 8.33614 10.5941 7.90449 10.5941 7.4544C10.5941 7.00431 10.7729 6.57265 11.0912 6.25439C11.4094 5.93613 11.8411 5.75733 12.2912 5.75733C12.7412 5.75733 13.1729 5.93613 13.4912 6.25439C13.8094 6.57265 13.9882 7.00431 13.9882 7.4544Z" fill="black"/>
<path fill-rule="evenodd" clip-rule="evenodd" d="M12.2912 0.666168C7.13633 0.666168 2.95731 4.84518 2.95731 10C2.95731 15.1548 7.13633 19.3339 12.2912 19.3339C17.446 19.3339 21.625 15.1548 21.625 10C21.625 4.84518 17.446 0.666168 12.2912 0.666168ZM4.65438 10C4.65438 11.7734 5.25938 13.406 6.27337 14.7026C6.98567 13.7676 7.90438 13.0099 8.95782 12.4885C10.0113 11.9672 11.1709 11.6963 12.3463 11.6971C13.5066 11.6957 14.6518 11.9593 15.6947 12.4679C16.7376 12.9764 17.6506 13.7163 18.3641 14.6313C19.0993 13.667 19.5943 12.5415 19.8082 11.348C20.0221 10.1544 19.9487 8.92707 19.594 7.76751C19.2394 6.60795 18.6137 5.54951 17.7688 4.67975C16.9239 3.81 15.8841 3.15394 14.7353 2.76587C13.5865 2.37779 12.3618 2.26885 11.1625 2.44806C9.96323 2.62727 8.82388 3.08948 7.83872 3.79644C6.85355 4.50341 6.0509 5.4348 5.49716 6.51356C4.94343 7.59232 4.65453 8.78743 4.65438 10ZM12.2912 17.6368C10.538 17.6396 8.83776 17.0365 7.47829 15.9295C8.02543 15.146 8.75379 14.5063 9.60138 14.0649C10.449 13.6234 11.3907 13.3933 12.3463 13.3941C13.29 13.3933 14.2203 13.6177 15.0599 14.0486C15.8995 14.4795 16.6241 15.1046 17.1736 15.8718C15.8036 17.0148 14.0753 17.6396 12.2912 17.6368Z" fill="black"/>
<path d="M3.85877 2.51949H-2.375" stroke="black" stroke-width="1.73333" stroke-miterlimit="16"/>
</svg>
