<svg width="18" height="18" viewBox="0 0 18 18" fill="none" xmlns="http://www.w3.org/2000/svg">
<path fill-rule="evenodd" clip-rule="evenodd" d="M12.2727 6.54545C12.2727 7.41343 11.9279 8.24586 11.3142 8.85962C10.7004 9.47337 9.86798 9.81817 9 9.81817C8.13202 9.81817 7.29959 9.47337 6.68583 8.85962C6.07208 8.24586 5.72727 7.41343 5.72727 6.54545C5.72727 5.67747 6.07208 4.84504 6.68583 4.23128C7.29959 3.61752 8.13202 3.27272 9 3.27272C9.86798 3.27272 10.7004 3.61752 11.3142 4.23128C11.9279 4.84504 12.2727 5.67747 12.2727 6.54545ZM10.6364 6.54545C10.6364 6.97944 10.464 7.39565 10.1571 7.70253C9.85021 8.00941 9.43399 8.18181 9 8.18181C8.56601 8.18181 8.14979 8.00941 7.84292 7.70253C7.53604 7.39565 7.36364 6.97944 7.36364 6.54545C7.36364 6.11146 7.53604 5.69524 7.84292 5.38836C8.14979 5.08149 8.56601 4.90908 9 4.90908C9.43399 4.90908 9.85021 5.08149 10.1571 5.38836C10.464 5.69524 10.6364 6.11146 10.6364 6.54545Z" fill="black"/>
<path fill-rule="evenodd" clip-rule="evenodd" d="M9 0C4.02955 0 0 4.02955 0 9C0 13.9705 4.02955 18 9 18C13.9705 18 18 13.9705 18 9C18 4.02955 13.9705 0 9 0ZM1.63636 9C1.63636 10.71 2.21973 12.2842 3.19745 13.5344C3.88427 12.6328 4.77013 11.9022 5.78589 11.3995C6.80165 10.8968 7.91983 10.6356 9.05318 10.6364C10.1719 10.6351 11.2762 10.8893 12.2818 11.3796C13.2874 11.8699 14.1678 12.5834 14.8557 13.4656C15.5646 12.5359 16.042 11.4506 16.2482 10.2998C16.4544 9.14888 16.3836 7.96544 16.0417 6.84735C15.6997 5.72926 15.0965 4.70868 14.2818 3.87003C13.4671 3.03139 12.4644 2.39879 11.3567 2.0246C10.249 1.6504 9.06807 1.54536 7.9117 1.71816C6.75534 1.89096 5.65674 2.33664 4.70681 3.01832C3.75688 3.69999 2.98294 4.59808 2.44901 5.63825C1.91508 6.67843 1.63651 7.83079 1.63636 9ZM9 16.3636C7.30956 16.3664 5.67012 15.7848 4.35927 14.7175C4.88684 13.962 5.58916 13.3451 6.40643 12.9195C7.22369 12.4938 8.13171 12.2719 9.05318 12.2727C9.96314 12.2719 10.8602 12.4883 11.6697 12.9038C12.4793 13.3193 13.178 13.922 13.7078 14.6618C12.3868 15.7639 10.7203 16.3663 9 16.3636Z" fill="black"/>
</svg>
